<svg xmlns="http://www.w3.org/2000/svg" xmlns:xlink="http://www.w3.org/1999/xlink" width="794" zoomAndPan="magnify" viewBox="0 0 595.5 842.249979" height="1123" preserveAspectRatio="xMidYMid meet" version="1.0"><defs><clipPath id="d6d4311651"><path d="M 136.585938 283.84375 L 458.171875 283.84375 L 458.171875 605.429688 L 136.585938 605.429688 Z M 136.585938 283.84375 " clip-rule="nonzero"/></clipPath></defs><g clip-path="url(#d6d4311651)"><path fill="#ffdc07" d="M 458.171875 444.636719 C 458.171875 447.269531 458.105469 449.898438 457.976562 452.527344 C 457.847656 455.15625 457.65625 457.78125 457.398438 460.398438 C 457.140625 463.015625 456.816406 465.628906 456.429688 468.230469 C 456.046875 470.832031 455.59375 473.425781 455.082031 476.007812 C 454.570312 478.585938 453.992188 481.15625 453.351562 483.707031 C 452.714844 486.257812 452.011719 488.796875 451.246094 491.3125 C 450.484375 493.832031 449.660156 496.328125 448.773438 498.808594 C 447.886719 501.285156 446.9375 503.738281 445.933594 506.171875 C 444.925781 508.601562 443.859375 511.007812 442.734375 513.386719 C 441.609375 515.765625 440.425781 518.113281 439.183594 520.433594 C 437.945312 522.753906 436.648438 525.042969 435.296875 527.300781 C 433.941406 529.558594 432.535156 531.78125 431.074219 533.96875 C 429.609375 536.15625 428.097656 538.308594 426.527344 540.421875 C 424.960938 542.535156 423.34375 544.609375 421.671875 546.644531 C 420.003906 548.675781 418.285156 550.667969 416.519531 552.621094 C 414.75 554.570312 412.9375 556.472656 411.078125 558.335938 C 409.214844 560.195312 407.3125 562.011719 405.359375 563.777344 C 403.410156 565.542969 401.417969 567.261719 399.386719 568.933594 C 397.351562 570.601562 395.277344 572.21875 393.164062 573.789062 C 391.050781 575.355469 388.898438 576.871094 386.710938 578.332031 C 384.523438 579.792969 382.300781 581.199219 380.042969 582.554688 C 377.785156 583.90625 375.496094 585.203125 373.175781 586.445312 C 370.855469 587.683594 368.503906 588.867188 366.125 589.992188 C 363.746094 591.117188 361.34375 592.183594 358.910156 593.191406 C 356.480469 594.199219 354.027344 595.144531 351.546875 596.03125 C 349.070312 596.917969 346.574219 597.742188 344.054688 598.507812 C 341.535156 599.269531 339 599.972656 336.449219 600.613281 C 333.894531 601.25 331.328125 601.828125 328.75 602.339844 C 326.167969 602.855469 323.574219 603.304688 320.972656 603.691406 C 318.371094 604.074219 315.757812 604.398438 313.140625 604.65625 C 310.519531 604.914062 307.898438 605.105469 305.269531 605.238281 C 302.640625 605.367188 300.011719 605.429688 297.378906 605.429688 C 294.746094 605.429688 292.117188 605.367188 289.488281 605.238281 C 286.859375 605.105469 284.238281 604.914062 281.617188 604.65625 C 279 604.398438 276.390625 604.074219 273.785156 603.691406 C 271.183594 603.304688 268.589844 602.855469 266.011719 602.339844 C 263.429688 601.828125 260.863281 601.25 258.308594 600.613281 C 255.757812 599.972656 253.222656 599.269531 250.703125 598.507812 C 248.183594 597.742188 245.6875 596.917969 243.210938 596.03125 C 240.730469 595.144531 238.277344 594.199219 235.847656 593.191406 C 233.414062 592.183594 231.011719 591.117188 228.632812 589.992188 C 226.253906 588.867188 223.902344 587.683594 221.582031 586.445312 C 219.261719 585.203125 216.972656 583.90625 214.714844 582.554688 C 212.457031 581.199219 210.234375 579.792969 208.046875 578.332031 C 205.859375 576.871094 203.707031 575.355469 201.59375 573.789062 C 199.480469 572.21875 197.40625 570.601562 195.375 568.933594 C 193.339844 567.261719 191.347656 565.542969 189.398438 563.777344 C 187.449219 562.011719 185.542969 560.195312 183.683594 558.335938 C 181.820312 556.472656 180.007812 554.570312 178.238281 552.621094 C 176.472656 550.667969 174.753906 548.675781 173.085938 546.644531 C 171.414062 544.609375 169.796875 542.535156 168.230469 540.421875 C 166.660156 538.308594 165.148438 536.15625 163.683594 533.96875 C 162.222656 531.78125 160.816406 529.558594 159.464844 527.300781 C 158.109375 525.042969 156.8125 522.753906 155.574219 520.433594 C 154.332031 518.113281 153.148438 515.765625 152.023438 513.386719 C 150.898438 511.007812 149.832031 508.601562 148.828125 506.171875 C 147.820312 503.738281 146.871094 501.285156 145.984375 498.808594 C 145.097656 496.328125 144.273438 493.832031 143.511719 491.3125 C 142.746094 488.796875 142.046875 486.257812 141.40625 483.707031 C 140.765625 481.15625 140.191406 478.585938 139.675781 476.007812 C 139.164062 473.425781 138.714844 470.832031 138.328125 468.230469 C 137.941406 465.628906 137.617188 463.015625 137.359375 460.398438 C 137.101562 457.78125 136.910156 455.15625 136.78125 452.527344 C 136.652344 449.898438 136.585938 447.269531 136.585938 444.636719 C 136.585938 442.007812 136.652344 439.375 136.78125 436.746094 C 136.910156 434.121094 137.101562 431.496094 137.359375 428.878906 C 137.617188 426.257812 137.941406 423.648438 138.328125 421.042969 C 138.714844 418.441406 139.164062 415.847656 139.675781 413.269531 C 140.191406 410.6875 140.765625 408.121094 141.40625 405.566406 C 142.046875 403.015625 142.746094 400.480469 143.511719 397.960938 C 144.273438 395.445312 145.097656 392.945312 145.984375 390.46875 C 146.871094 387.992188 147.820312 385.535156 148.828125 383.105469 C 149.832031 380.675781 150.898438 378.269531 152.023438 375.890625 C 153.148438 373.511719 154.332031 371.160156 155.574219 368.839844 C 156.8125 366.519531 158.109375 364.230469 159.464844 361.972656 C 160.816406 359.714844 162.222656 357.496094 163.683594 355.304688 C 165.148438 353.117188 166.660156 350.96875 168.230469 348.855469 C 169.796875 346.738281 171.414062 344.667969 173.085938 342.632812 C 174.753906 340.597656 176.472656 338.605469 178.238281 336.65625 C 180.007812 334.707031 181.820312 332.800781 183.683594 330.941406 C 185.542969 329.078125 187.449219 327.265625 189.398438 325.5 C 191.347656 323.730469 193.339844 322.011719 195.375 320.34375 C 197.40625 318.675781 199.480469 317.054688 201.59375 315.488281 C 203.707031 313.921875 205.859375 312.40625 208.046875 310.945312 C 210.234375 309.480469 212.457031 308.074219 214.714844 306.722656 C 216.972656 305.367188 219.261719 304.070312 221.582031 302.832031 C 223.902344 301.589844 226.253906 300.40625 228.632812 299.28125 C 231.011719 298.15625 233.414062 297.09375 235.847656 296.085938 C 238.277344 295.078125 240.730469 294.132812 243.210938 293.246094 C 245.6875 292.359375 248.183594 291.53125 250.703125 290.769531 C 253.222656 290.003906 255.757812 289.304688 258.308594 288.664062 C 260.863281 288.023438 263.429688 287.449219 266.011719 286.933594 C 268.589844 286.421875 271.183594 285.972656 273.785156 285.585938 C 276.390625 285.199219 279 284.878906 281.617188 284.621094 C 284.238281 284.363281 286.859375 284.167969 289.488281 284.039062 C 292.117188 283.910156 294.746094 283.84375 297.378906 283.84375 C 300.011719 283.84375 302.640625 283.910156 305.269531 284.039062 C 307.898438 284.167969 310.519531 284.363281 313.140625 284.621094 C 315.757812 284.878906 318.371094 285.199219 320.972656 285.585938 C 323.574219 285.972656 326.167969 286.421875 328.75 286.933594 C 331.328125 287.449219 333.894531 288.023438 336.449219 288.664062 C 339 289.304688 341.535156 290.003906 344.054688 290.769531 C 346.574219 291.53125 349.070312 292.359375 351.546875 293.246094 C 354.027344 294.132812 356.480469 295.078125 358.910156 296.085938 C 361.34375 297.09375 363.746094 298.15625 366.125 299.28125 C 368.503906 300.40625 370.855469 301.589844 373.175781 302.832031 C 375.496094 304.070312 377.785156 305.367188 380.042969 306.722656 C 382.300781 308.074219 384.523438 309.480469 386.710938 310.945312 C 388.898438 312.40625 391.050781 313.921875 393.164062 315.488281 C 395.277344 317.054688 397.351562 318.675781 399.386719 320.34375 C 401.417969 322.011719 403.410156 323.730469 405.359375 325.5 C 407.3125 327.265625 409.214844 329.078125 411.078125 330.941406 C 412.9375 332.800781 414.75 334.707031 416.519531 336.65625 C 418.285156 338.605469 420.003906 340.597656 421.671875 342.632812 C 423.34375 344.667969 424.960938 346.738281 426.527344 348.855469 C 428.097656 350.96875 429.609375 353.117188 431.074219 355.304688 C 432.535156 357.496094 433.941406 359.714844 435.296875 361.972656 C 436.648438 364.230469 437.945312 366.519531 439.183594 368.839844 C 440.425781 371.160156 441.609375 373.511719 442.734375 375.890625 C 443.859375 378.269531 444.925781 380.675781 445.933594 383.105469 C 446.9375 385.535156 447.886719 387.992188 448.773438 390.46875 C 449.660156 392.945312 450.484375 395.445312 451.246094 397.960938 C 452.011719 400.480469 452.714844 403.015625 453.351562 405.566406 C 453.992188 408.121094 454.570312 410.6875 455.082031 413.269531 C 455.59375 415.847656 456.046875 418.441406 456.429688 421.042969 C 456.816406 423.648438 457.140625 426.257812 457.398438 428.878906 C 457.65625 431.496094 457.847656 434.121094 457.976562 436.746094 C 458.105469 439.375 458.171875 442.007812 458.171875 444.636719 Z M 458.171875 444.636719 " fill-opacity="1" fill-rule="nonzero"/></g><path fill="#e89e0c" d="M 416.046875 443.328125 C 416.046875 445.269531 416 447.210938 415.90625 449.148438 C 415.808594 451.089844 415.667969 453.023438 415.476562 454.957031 C 415.285156 456.890625 415.046875 458.816406 414.761719 460.738281 C 414.476562 462.660156 414.144531 464.574219 413.765625 466.476562 C 413.386719 468.382812 412.964844 470.277344 412.492188 472.160156 C 412.019531 474.042969 411.5 475.914062 410.9375 477.773438 C 410.375 479.632812 409.765625 481.476562 409.109375 483.304688 C 408.457031 485.132812 407.757812 486.945312 407.015625 488.738281 C 406.269531 490.53125 405.484375 492.308594 404.652344 494.0625 C 403.824219 495.820312 402.949219 497.554688 402.035156 499.265625 C 401.121094 500.980469 400.164062 502.667969 399.164062 504.335938 C 398.167969 506 397.128906 507.640625 396.046875 509.253906 C 394.96875 510.871094 393.851562 512.457031 392.695312 514.015625 C 391.539062 515.578125 390.34375 517.109375 389.109375 518.609375 C 387.878906 520.109375 386.609375 521.582031 385.308594 523.019531 C 384.003906 524.457031 382.664062 525.863281 381.289062 527.238281 C 379.917969 528.609375 378.511719 529.949219 377.070312 531.253906 C 375.632812 532.558594 374.164062 533.828125 372.660156 535.058594 C 371.160156 536.289062 369.628906 537.484375 368.070312 538.640625 C 366.511719 539.796875 364.921875 540.917969 363.308594 541.996094 C 361.691406 543.074219 360.054688 544.113281 358.386719 545.113281 C 356.722656 546.109375 355.03125 547.066406 353.320312 547.984375 C 351.605469 548.898438 349.871094 549.769531 348.117188 550.601562 C 346.359375 551.433594 344.585938 552.21875 342.792969 552.960938 C 340.996094 553.703125 339.1875 554.402344 337.355469 555.058594 C 335.527344 555.710938 333.683594 556.320312 331.828125 556.886719 C 329.96875 557.449219 328.097656 557.964844 326.214844 558.4375 C 324.328125 558.910156 322.433594 559.335938 320.53125 559.714844 C 318.625 560.09375 316.710938 560.425781 314.792969 560.710938 C 312.871094 560.996094 310.945312 561.234375 309.011719 561.421875 C 307.078125 561.613281 305.140625 561.757812 303.203125 561.851562 C 301.261719 561.949219 299.320312 561.996094 297.378906 561.996094 C 295.4375 561.996094 293.496094 561.949219 291.554688 561.851562 C 289.617188 561.757812 287.679688 561.613281 285.746094 561.421875 C 283.816406 561.234375 281.886719 560.996094 279.96875 560.710938 C 278.046875 560.425781 276.132812 560.09375 274.226562 559.714844 C 272.324219 559.335938 270.429688 558.910156 268.546875 558.4375 C 266.660156 557.964844 264.789062 557.449219 262.929688 556.886719 C 261.074219 556.320312 259.230469 555.710938 257.402344 555.058594 C 255.574219 554.402344 253.761719 553.703125 251.964844 552.960938 C 250.171875 552.21875 248.398438 551.433594 246.640625 550.601562 C 244.886719 549.769531 243.152344 548.898438 241.4375 547.984375 C 239.726562 547.066406 238.039062 546.109375 236.371094 545.113281 C 234.707031 544.113281 233.066406 543.074219 231.449219 541.996094 C 229.835938 540.917969 228.25 539.796875 226.6875 538.640625 C 225.128906 537.484375 223.597656 536.289062 222.097656 535.058594 C 220.59375 533.828125 219.125 532.558594 217.6875 531.253906 C 216.246094 529.949219 214.839844 528.609375 213.46875 527.238281 C 212.09375 525.863281 210.757812 524.457031 209.453125 523.019531 C 208.148438 521.582031 206.878906 520.109375 205.648438 518.609375 C 204.414062 517.109375 203.222656 515.578125 202.0625 514.015625 C 200.90625 512.457031 199.789062 510.871094 198.710938 509.253906 C 197.632812 507.640625 196.59375 506 195.59375 504.335938 C 194.59375 502.667969 193.636719 500.980469 192.722656 499.265625 C 191.808594 497.554688 190.933594 495.820312 190.105469 494.0625 C 189.273438 492.308594 188.488281 490.53125 187.742188 488.738281 C 187 486.945312 186.300781 485.132812 185.648438 483.304688 C 184.992188 481.476562 184.382812 479.632812 183.820312 477.773438 C 183.257812 475.914062 182.738281 474.042969 182.265625 472.160156 C 181.796875 470.277344 181.371094 468.382812 180.992188 466.476562 C 180.613281 464.574219 180.28125 462.660156 179.996094 460.738281 C 179.710938 458.816406 179.472656 456.890625 179.28125 454.957031 C 179.09375 453.023438 178.949219 451.089844 178.855469 449.148438 C 178.757812 447.210938 178.710938 445.269531 178.710938 443.328125 C 178.710938 441.382812 178.757812 439.445312 178.855469 437.503906 C 178.949219 435.5625 179.09375 433.628906 179.28125 431.695312 C 179.472656 429.761719 179.710938 427.835938 179.996094 425.914062 C 180.28125 423.992188 180.613281 422.082031 180.992188 420.175781 C 181.371094 418.269531 181.796875 416.375 182.265625 414.492188 C 182.738281 412.609375 183.257812 410.738281 183.820312 408.878906 C 184.382812 407.019531 184.992188 405.175781 185.648438 403.347656 C 186.300781 401.519531 187 399.707031 187.742188 397.914062 C 188.488281 396.121094 189.273438 394.34375 190.105469 392.589844 C 190.933594 390.832031 191.808594 389.097656 192.722656 387.386719 C 193.636719 385.671875 194.59375 383.984375 195.59375 382.320312 C 196.59375 380.652344 197.632812 379.011719 198.710938 377.398438 C 199.789062 375.78125 200.90625 374.195312 202.0625 372.636719 C 203.222656 371.074219 204.414062 369.546875 205.648438 368.042969 C 206.878906 366.542969 208.148438 365.074219 209.453125 363.632812 C 210.757812 362.195312 212.09375 360.789062 213.46875 359.414062 C 214.839844 358.042969 216.246094 356.703125 217.6875 355.398438 C 219.125 354.09375 220.59375 352.828125 222.097656 351.59375 C 223.597656 350.363281 225.128906 349.167969 226.6875 348.011719 C 228.25 346.855469 229.835938 345.734375 231.449219 344.65625 C 233.066406 343.578125 234.707031 342.539062 236.371094 341.542969 C 238.039062 340.542969 239.726562 339.585938 241.4375 338.671875 C 243.152344 337.753906 244.886719 336.882812 246.640625 336.050781 C 248.398438 335.222656 250.171875 334.433594 251.964844 333.691406 C 253.761719 332.949219 255.574219 332.25 257.402344 331.59375 C 259.230469 330.941406 261.074219 330.332031 262.929688 329.769531 C 264.789062 329.203125 266.660156 328.6875 268.546875 328.214844 C 270.429688 327.742188 272.324219 327.316406 274.226562 326.9375 C 276.132812 326.558594 278.046875 326.226562 279.96875 325.941406 C 281.886719 325.65625 283.816406 325.417969 285.746094 325.230469 C 287.679688 325.039062 289.617188 324.894531 291.554688 324.800781 C 293.496094 324.707031 295.4375 324.65625 297.378906 324.65625 C 299.320312 324.65625 301.261719 324.707031 303.203125 324.800781 C 305.140625 324.894531 307.078125 325.039062 309.011719 325.230469 C 310.945312 325.417969 312.871094 325.65625 314.792969 325.941406 C 316.710938 326.226562 318.625 326.558594 320.53125 326.9375 C 322.433594 327.316406 324.328125 327.742188 326.214844 328.214844 C 328.097656 328.6875 329.96875 329.203125 331.828125 329.769531 C 333.683594 330.332031 335.527344 330.941406 337.355469 331.59375 C 339.1875 332.25 340.996094 332.949219 342.792969 333.691406 C 344.585938 334.433594 346.359375 335.222656 348.117188 336.050781 C 349.871094 336.882812 351.605469 337.753906 353.320312 338.671875 C 355.03125 339.585938 356.722656 340.542969 358.386719 341.542969 C 360.054688 342.539062 361.691406 343.578125 363.308594 344.65625 C 364.921875 345.734375 366.511719 346.855469 368.070312 348.011719 C 369.628906 349.167969 371.160156 350.363281 372.660156 351.59375 C 374.164062 352.828125 375.632812 354.09375 377.070312 355.398438 C 378.511719 356.703125 379.917969 358.042969 381.289062 359.414062 C 382.664062 360.789062 384.003906 362.195312 385.308594 363.632812 C 386.609375 365.074219 387.878906 366.542969 389.109375 368.042969 C 390.34375 369.546875 391.539062 371.074219 392.695312 372.636719 C 393.851562 374.195312 394.96875 375.78125 396.046875 377.398438 C 397.128906 379.011719 398.167969 380.652344 399.164062 382.320312 C 400.164062 383.984375 401.121094 385.671875 402.035156 387.386719 C 402.949219 389.097656 403.824219 390.832031 404.652344 392.589844 C 405.484375 394.34375 406.269531 396.121094 407.015625 397.914062 C 407.757812 399.707031 408.457031 401.519531 409.109375 403.347656 C 409.765625 405.175781 410.375 407.019531 410.9375 408.878906 C 411.5 410.738281 412.019531 412.609375 412.492188 414.492188 C 412.964844 416.375 413.386719 418.269531 413.765625 420.175781 C 414.144531 422.082031 414.476562 423.992188 414.761719 425.914062 C 415.046875 427.835938 415.285156 429.761719 415.476562 431.695312 C 415.667969 433.628906 415.808594 435.5625 415.90625 437.503906 C 416 439.445312 416.046875 441.382812 416.046875 443.328125 Z M 416.046875 443.328125 " fill-opacity="1" fill-rule="nonzero"/><path fill="#f5b400" d="M 412.113281 449.882812 C 412.113281 451.761719 412.066406 453.636719 411.976562 455.511719 C 411.882812 457.386719 411.746094 459.261719 411.5625 461.128906 C 411.378906 462.996094 411.148438 464.859375 410.871094 466.71875 C 410.597656 468.574219 410.277344 470.425781 409.910156 472.265625 C 409.542969 474.109375 409.132812 475.941406 408.675781 477.761719 C 408.21875 479.582031 407.71875 481.390625 407.171875 483.1875 C 406.628906 484.984375 406.039062 486.769531 405.40625 488.535156 C 404.773438 490.304688 404.097656 492.054688 403.378906 493.789062 C 402.660156 495.523438 401.902344 497.242188 401.097656 498.9375 C 400.296875 500.636719 399.453125 502.3125 398.566406 503.96875 C 397.679688 505.625 396.753906 507.257812 395.789062 508.867188 C 394.824219 510.480469 393.820312 512.066406 392.777344 513.625 C 391.734375 515.1875 390.652344 516.722656 389.535156 518.230469 C 388.417969 519.738281 387.261719 521.21875 386.070312 522.667969 C 384.878906 524.121094 383.652344 525.542969 382.390625 526.933594 C 381.132812 528.324219 379.835938 529.683594 378.507812 531.011719 C 377.179688 532.339844 375.820312 533.632812 374.429688 534.894531 C 373.039062 536.15625 371.617188 537.382812 370.167969 538.574219 C 368.714844 539.765625 367.234375 540.917969 365.726562 542.039062 C 364.21875 543.15625 362.683594 544.238281 361.121094 545.28125 C 359.5625 546.324219 357.976562 547.328125 356.363281 548.292969 C 354.753906 549.257812 353.121094 550.183594 351.464844 551.070312 C 349.808594 551.953125 348.132812 552.796875 346.433594 553.601562 C 344.738281 554.40625 343.019531 555.164062 341.285156 555.882812 C 339.550781 556.601562 337.800781 557.277344 336.03125 557.910156 C 334.265625 558.542969 332.480469 559.132812 330.683594 559.675781 C 328.886719 560.222656 327.078125 560.722656 325.257812 561.179688 C 323.4375 561.636719 321.605469 562.046875 319.761719 562.414062 C 317.921875 562.777344 316.070312 563.101562 314.214844 563.375 C 312.355469 563.652344 310.492188 563.878906 308.625 564.066406 C 306.757812 564.25 304.882812 564.386719 303.007812 564.480469 C 301.132812 564.570312 299.257812 564.617188 297.378906 564.617188 C 295.5 564.617188 293.625 564.570312 291.75 564.480469 C 289.875 564.386719 288.003906 564.25 286.132812 564.066406 C 284.265625 563.878906 282.402344 563.652344 280.542969 563.375 C 278.6875 563.101562 276.835938 562.777344 274.996094 562.414062 C 273.152344 562.046875 271.324219 561.636719 269.5 561.179688 C 267.679688 560.722656 265.871094 560.222656 264.074219 559.675781 C 262.277344 559.132812 260.496094 558.542969 258.726562 557.910156 C 256.957031 557.277344 255.207031 556.601562 253.472656 555.882812 C 251.738281 555.164062 250.019531 554.40625 248.324219 553.601562 C 246.625 552.796875 244.949219 551.953125 243.292969 551.070312 C 241.636719 550.183594 240.003906 549.257812 238.394531 548.292969 C 236.785156 547.328125 235.199219 546.324219 233.636719 545.28125 C 232.074219 544.238281 230.539062 543.15625 229.03125 542.039062 C 227.523438 540.917969 226.042969 539.765625 224.59375 538.574219 C 223.140625 537.382812 221.71875 536.15625 220.328125 534.894531 C 218.9375 533.632812 217.578125 532.339844 216.25 531.011719 C 214.921875 529.683594 213.628906 528.324219 212.367188 526.933594 C 211.105469 525.542969 209.878906 524.121094 208.6875 522.667969 C 207.496094 521.21875 206.34375 519.738281 205.222656 518.230469 C 204.105469 516.722656 203.023438 515.1875 201.980469 513.625 C 200.9375 512.066406 199.933594 510.480469 198.96875 508.867188 C 198.003906 507.257812 197.078125 505.625 196.191406 503.96875 C 195.308594 502.3125 194.464844 500.636719 193.660156 498.9375 C 192.859375 497.242188 192.097656 495.523438 191.378906 493.789062 C 190.660156 492.054688 189.984375 490.304688 189.351562 488.535156 C 188.71875 486.769531 188.128906 484.984375 187.585938 483.1875 C 187.039062 481.390625 186.539062 479.582031 186.082031 477.761719 C 185.625 475.941406 185.214844 474.109375 184.847656 472.265625 C 184.484375 470.425781 184.160156 468.574219 183.886719 466.71875 C 183.609375 464.859375 183.382812 462.996094 183.195312 461.128906 C 183.011719 459.261719 182.875 457.386719 182.78125 455.511719 C 182.691406 453.636719 182.644531 451.761719 182.644531 449.882812 C 182.644531 448.003906 182.691406 446.128906 182.78125 444.253906 C 182.875 442.378906 183.011719 440.503906 183.195312 438.636719 C 183.382812 436.769531 183.609375 434.90625 183.886719 433.046875 C 184.160156 431.191406 184.484375 429.339844 184.847656 427.5 C 185.214844 425.65625 185.625 423.824219 186.082031 422.003906 C 186.539062 420.183594 187.039062 418.375 187.585938 416.578125 C 188.128906 414.78125 188.71875 412.996094 189.351562 411.230469 C 189.984375 409.460938 190.660156 407.710938 191.378906 405.976562 C 192.097656 404.242188 192.859375 402.523438 193.660156 400.828125 C 194.464844 399.128906 195.308594 397.453125 196.191406 395.796875 C 197.078125 394.140625 198.003906 392.507812 198.96875 390.898438 C 199.933594 389.285156 200.9375 387.699219 201.980469 386.140625 C 203.023438 384.578125 204.105469 383.042969 205.222656 381.535156 C 206.34375 380.027344 207.496094 378.546875 208.6875 377.097656 C 209.878906 375.644531 211.105469 374.222656 212.367188 372.832031 C 213.628906 371.441406 214.921875 370.082031 216.25 368.753906 C 217.578125 367.425781 218.9375 366.132812 220.328125 364.871094 C 221.71875 363.609375 223.140625 362.382812 224.59375 361.191406 C 226.042969 360 227.523438 358.84375 229.03125 357.726562 C 230.539062 356.609375 232.074219 355.527344 233.636719 354.484375 C 235.199219 353.441406 236.785156 352.4375 238.394531 351.472656 C 240.003906 350.507812 241.636719 349.582031 243.292969 348.695312 C 244.949219 347.8125 246.625 346.964844 248.324219 346.164062 C 250.019531 345.359375 251.738281 344.601562 253.472656 343.882812 C 255.207031 343.164062 256.957031 342.488281 258.726562 341.855469 C 260.496094 341.222656 262.277344 340.632812 264.074219 340.089844 C 265.871094 339.542969 267.679688 339.042969 269.5 338.585938 C 271.324219 338.128906 273.152344 337.71875 274.996094 337.351562 C 276.835938 336.988281 278.6875 336.664062 280.542969 336.390625 C 282.402344 336.113281 284.265625 335.882812 286.132812 335.699219 C 288.003906 335.515625 289.875 335.378906 291.75 335.285156 C 293.625 335.195312 295.5 335.148438 297.378906 335.148438 C 299.257812 335.148438 301.132812 335.195312 303.007812 335.285156 C 304.882812 335.378906 306.757812 335.515625 308.625 335.699219 C 310.492188 335.882812 312.355469 336.113281 314.214844 336.390625 C 316.070312 336.664062 317.921875 336.988281 319.761719 337.351562 C 321.605469 337.71875 323.4375 338.128906 325.257812 338.585938 C 327.078125 339.042969 328.886719 339.542969 330.683594 340.089844 C 332.480469 340.632812 334.265625 341.222656 336.03125 341.855469 C 337.800781 342.488281 339.550781 343.164062 341.285156 343.882812 C 343.019531 344.601562 344.738281 345.359375 346.433594 346.164062 C 348.132812 346.964844 349.808594 347.8125 351.464844 348.695312 C 353.121094 349.582031 354.753906 350.507812 356.363281 351.472656 C 357.976562 352.4375 359.5625 353.441406 361.121094 354.484375 C 362.683594 355.527344 364.21875 356.609375 365.726562 357.726562 C 367.234375 358.84375 368.714844 360 370.167969 361.191406 C 371.617188 362.382812 373.039062 363.609375 374.429688 364.871094 C 375.820312 366.132812 377.179688 367.425781 378.507812 368.753906 C 379.835938 370.082031 381.132812 371.441406 382.390625 372.832031 C 383.652344 374.222656 384.878906 375.644531 386.070312 377.097656 C 387.261719 378.546875 388.417969 380.027344 389.535156 381.535156 C 390.652344 383.042969 391.734375 384.578125 392.777344 386.140625 C 393.820312 387.699219 394.824219 389.285156 395.789062 390.898438 C 396.753906 392.507812 397.679688 394.140625 398.566406 395.796875 C 399.453125 397.453125 400.296875 399.128906 401.097656 400.828125 C 401.902344 402.523438 402.660156 404.242188 403.378906 405.976562 C 404.097656 407.710938 404.773438 409.460938 405.40625 411.230469 C 406.039062 412.996094 406.628906 414.78125 407.171875 416.578125 C 407.71875 418.375 408.21875 420.183594 408.675781 422.003906 C 409.132812 423.824219 409.542969 425.65625 409.910156 427.5 C 410.277344 429.339844 410.597656 431.191406 410.871094 433.046875 C 411.148438 434.90625 411.378906 436.769531 411.5625 438.636719 C 411.746094 440.503906 411.882812 442.378906 411.976562 444.253906 C 412.066406 446.128906 412.113281 448.003906 412.113281 449.882812 Z M 412.113281 449.882812 " fill-opacity="1" fill-rule="nonzero"/><path fill="#ffe67b" d="M 334.421875 482.335938 C 331.636719 486.925781 327.375 490.859375 321.800781 493.808594 C 316.226562 496.761719 309.671875 498.398438 301.96875 498.726562 L 301.96875 510.855469 L 292.296875 510.855469 L 292.296875 498.5625 C 281.644531 497.578125 273.121094 494.464844 266.566406 489.054688 C 260.007812 483.648438 256.566406 476.109375 256.238281 466.601562 L 283.609375 466.601562 C 284.265625 472.664062 287.054688 476.4375 292.296875 478.238281 L 292.296875 454.308594 C 284.429688 452.339844 278.203125 450.375 273.613281 448.40625 C 268.859375 446.441406 264.925781 443.492188 261.320312 439.230469 C 257.878906 434.96875 256.074219 429.230469 256.074219 421.855469 C 256.074219 412.675781 259.515625 405.300781 266.238281 399.890625 C 272.957031 394.320312 281.808594 391.203125 292.296875 390.546875 L 292.296875 378.417969 L 301.96875 378.417969 L 301.96875 390.546875 C 312.457031 391.367188 320.816406 394.480469 327.046875 399.726562 C 333.109375 404.972656 336.554688 412.511719 337.371094 421.855469 L 309.835938 421.855469 C 309.179688 416.445312 306.722656 412.839844 302.132812 411.363281 L 302.132812 434.640625 C 310.492188 436.933594 316.882812 439.066406 321.472656 440.867188 C 326.0625 442.671875 329.996094 445.621094 333.601562 449.882812 C 337.207031 453.980469 339.011719 459.71875 339.011719 466.929688 C 338.847656 472.5 337.371094 477.746094 334.421875 482.335938 Z M 285.578125 427.101562 C 287.054688 428.738281 289.347656 430.378906 292.296875 431.6875 L 292.296875 410.710938 C 289.511719 411.199219 287.21875 412.347656 285.742188 413.988281 C 284.101562 415.625 283.285156 417.921875 283.285156 420.871094 C 283.285156 423.328125 284.101562 425.460938 285.578125 427.101562 Z M 309.179688 474.960938 C 310.984375 472.992188 311.804688 470.699219 311.804688 467.914062 C 311.804688 465.289062 310.984375 463.160156 309.34375 461.519531 C 307.707031 459.882812 305.246094 458.40625 301.96875 457.257812 L 301.96875 478.730469 C 305.082031 478.074219 307.378906 476.925781 309.179688 474.960938 Z M 309.179688 474.960938 " fill-opacity="1" fill-rule="nonzero"/></svg>